<mxfile host="app.diagrams.net" modified="2023-05-31T01:52:17.500Z" agent="Mozilla/5.0 (Windows NT 10.0; Win64; x64) AppleWebKit/537.36 (KHTML, like Gecko) Chrome/113.0.0.0 Safari/537.36 Edg/113.0.1774.57" etag="vd1-KjmSJlNjH9E5XrN_" version="21.3.6" type="github">
  <diagram id="R2lEEEUBdFMjLlhIrx00" name="Page-1">
    <mxGraphModel dx="678" dy="1172" grid="1" gridSize="9" guides="1" tooltips="1" connect="1" arrows="1" fold="1" page="1" pageScale="1" pageWidth="850" pageHeight="1100" math="0" shadow="0" extFonts="Permanent Marker^https://fonts.googleapis.com/css?family=Permanent+Marker">
      <root>
        <mxCell id="0" />
        <mxCell id="1" parent="0" />
        <mxCell id="pcjOSyaFNlnAI5Jpouop-1" value="Usuario" style="whiteSpace=wrap;html=1;align=center;" vertex="1" parent="1">
          <mxGeometry x="342" y="261" width="100" height="40" as="geometry" />
        </mxCell>
        <mxCell id="pcjOSyaFNlnAI5Jpouop-9" style="edgeStyle=orthogonalEdgeStyle;rounded=0;orthogonalLoop=1;jettySize=auto;html=1;entryX=0;entryY=0.5;entryDx=0;entryDy=0;endArrow=none;endFill=0;" edge="1" parent="1" source="pcjOSyaFNlnAI5Jpouop-2" target="pcjOSyaFNlnAI5Jpouop-1">
          <mxGeometry relative="1" as="geometry" />
        </mxCell>
        <mxCell id="pcjOSyaFNlnAI5Jpouop-2" value="Id_Usuario" style="ellipse;whiteSpace=wrap;html=1;align=center;fontStyle=4;" vertex="1" parent="1">
          <mxGeometry x="171" y="189" width="100" height="40" as="geometry" />
        </mxCell>
        <mxCell id="pcjOSyaFNlnAI5Jpouop-8" style="edgeStyle=orthogonalEdgeStyle;rounded=0;orthogonalLoop=1;jettySize=auto;html=1;entryX=0.75;entryY=0;entryDx=0;entryDy=0;endArrow=none;endFill=0;" edge="1" parent="1" source="pcjOSyaFNlnAI5Jpouop-4" target="pcjOSyaFNlnAI5Jpouop-1">
          <mxGeometry relative="1" as="geometry" />
        </mxCell>
        <mxCell id="pcjOSyaFNlnAI5Jpouop-4" value="Nombres" style="ellipse;whiteSpace=wrap;html=1;align=center;fontStyle=4;" vertex="1" parent="1">
          <mxGeometry x="171" y="27" width="100" height="40" as="geometry" />
        </mxCell>
        <mxCell id="pcjOSyaFNlnAI5Jpouop-7" style="edgeStyle=orthogonalEdgeStyle;rounded=0;orthogonalLoop=1;jettySize=auto;html=1;entryX=0.5;entryY=0;entryDx=0;entryDy=0;endArrow=none;endFill=0;" edge="1" parent="1" source="pcjOSyaFNlnAI5Jpouop-5" target="pcjOSyaFNlnAI5Jpouop-1">
          <mxGeometry relative="1" as="geometry" />
        </mxCell>
        <mxCell id="pcjOSyaFNlnAI5Jpouop-5" value="Apellidos" style="ellipse;whiteSpace=wrap;html=1;align=center;fontStyle=4;" vertex="1" parent="1">
          <mxGeometry x="171" y="81" width="100" height="40" as="geometry" />
        </mxCell>
        <mxCell id="pcjOSyaFNlnAI5Jpouop-14" style="edgeStyle=orthogonalEdgeStyle;rounded=0;orthogonalLoop=1;jettySize=auto;html=1;entryX=0.628;entryY=0.034;entryDx=0;entryDy=0;entryPerimeter=0;endArrow=none;endFill=0;" edge="1" parent="1" source="pcjOSyaFNlnAI5Jpouop-10" target="pcjOSyaFNlnAI5Jpouop-1">
          <mxGeometry relative="1" as="geometry" />
        </mxCell>
        <mxCell id="pcjOSyaFNlnAI5Jpouop-10" value="Password" style="ellipse;whiteSpace=wrap;html=1;align=center;fontStyle=4;" vertex="1" parent="1">
          <mxGeometry x="504" y="9" width="100" height="40" as="geometry" />
        </mxCell>
        <mxCell id="pcjOSyaFNlnAI5Jpouop-15" style="edgeStyle=orthogonalEdgeStyle;rounded=0;orthogonalLoop=1;jettySize=auto;html=1;entryX=0.428;entryY=0.004;entryDx=0;entryDy=0;entryPerimeter=0;endArrow=none;endFill=0;" edge="1" parent="1" source="pcjOSyaFNlnAI5Jpouop-11" target="pcjOSyaFNlnAI5Jpouop-1">
          <mxGeometry relative="1" as="geometry" />
        </mxCell>
        <mxCell id="pcjOSyaFNlnAI5Jpouop-11" value="UserName" style="ellipse;whiteSpace=wrap;html=1;align=center;fontStyle=4;" vertex="1" parent="1">
          <mxGeometry x="504" y="67" width="100" height="40" as="geometry" />
        </mxCell>
        <mxCell id="pcjOSyaFNlnAI5Jpouop-16" style="edgeStyle=orthogonalEdgeStyle;rounded=0;orthogonalLoop=1;jettySize=auto;html=1;endArrow=none;endFill=0;" edge="1" parent="1" source="pcjOSyaFNlnAI5Jpouop-12">
          <mxGeometry relative="1" as="geometry">
            <mxPoint x="414" y="189" as="targetPoint" />
          </mxGeometry>
        </mxCell>
        <mxCell id="pcjOSyaFNlnAI5Jpouop-12" value="Id_TUsuario" style="ellipse;whiteSpace=wrap;html=1;align=center;fontStyle=4;" vertex="1" parent="1">
          <mxGeometry x="504" y="121" width="100" height="40" as="geometry" />
        </mxCell>
        <mxCell id="pcjOSyaFNlnAI5Jpouop-17" style="edgeStyle=orthogonalEdgeStyle;rounded=0;orthogonalLoop=1;jettySize=auto;html=1;endArrow=none;endFill=0;" edge="1" parent="1" source="pcjOSyaFNlnAI5Jpouop-13">
          <mxGeometry relative="1" as="geometry">
            <mxPoint x="414" y="261" as="targetPoint" />
          </mxGeometry>
        </mxCell>
        <mxCell id="pcjOSyaFNlnAI5Jpouop-13" value="Email" style="ellipse;whiteSpace=wrap;html=1;align=center;fontStyle=4;" vertex="1" parent="1">
          <mxGeometry x="504" y="180" width="100" height="40" as="geometry" />
        </mxCell>
        <mxCell id="pcjOSyaFNlnAI5Jpouop-18" value="Tipo_Usuario" style="whiteSpace=wrap;html=1;align=center;" vertex="1" parent="1">
          <mxGeometry x="657" y="270" width="100" height="40" as="geometry" />
        </mxCell>
        <mxCell id="pcjOSyaFNlnAI5Jpouop-22" style="edgeStyle=orthogonalEdgeStyle;rounded=0;orthogonalLoop=1;jettySize=auto;html=1;entryX=0.5;entryY=0;entryDx=0;entryDy=0;endArrow=none;endFill=0;" edge="1" parent="1" source="pcjOSyaFNlnAI5Jpouop-19" target="pcjOSyaFNlnAI5Jpouop-18">
          <mxGeometry relative="1" as="geometry" />
        </mxCell>
        <mxCell id="pcjOSyaFNlnAI5Jpouop-19" value="Id_TUser" style="ellipse;whiteSpace=wrap;html=1;align=center;fontStyle=4;" vertex="1" parent="1">
          <mxGeometry x="801" y="153" width="100" height="40" as="geometry" />
        </mxCell>
        <mxCell id="pcjOSyaFNlnAI5Jpouop-23" style="edgeStyle=orthogonalEdgeStyle;rounded=0;orthogonalLoop=1;jettySize=auto;html=1;entryX=0.679;entryY=-0.05;entryDx=0;entryDy=0;entryPerimeter=0;endArrow=none;endFill=0;" edge="1" parent="1" source="pcjOSyaFNlnAI5Jpouop-20" target="pcjOSyaFNlnAI5Jpouop-18">
          <mxGeometry relative="1" as="geometry" />
        </mxCell>
        <mxCell id="pcjOSyaFNlnAI5Jpouop-20" value="NombreT" style="ellipse;whiteSpace=wrap;html=1;align=center;fontStyle=4;" vertex="1" parent="1">
          <mxGeometry x="801" y="207" width="100" height="40" as="geometry" />
        </mxCell>
        <mxCell id="pcjOSyaFNlnAI5Jpouop-24" style="edgeStyle=orthogonalEdgeStyle;rounded=0;orthogonalLoop=1;jettySize=auto;html=1;entryX=1;entryY=0.5;entryDx=0;entryDy=0;endArrow=none;endFill=0;" edge="1" parent="1" source="pcjOSyaFNlnAI5Jpouop-21" target="pcjOSyaFNlnAI5Jpouop-18">
          <mxGeometry relative="1" as="geometry" />
        </mxCell>
        <mxCell id="pcjOSyaFNlnAI5Jpouop-21" value="DescripcionT" style="ellipse;whiteSpace=wrap;html=1;align=center;fontStyle=4;" vertex="1" parent="1">
          <mxGeometry x="801" y="270" width="100" height="40" as="geometry" />
        </mxCell>
        <mxCell id="pcjOSyaFNlnAI5Jpouop-26" style="edgeStyle=orthogonalEdgeStyle;rounded=0;orthogonalLoop=1;jettySize=auto;html=1;entryX=0;entryY=0.5;entryDx=0;entryDy=0;" edge="1" parent="1" source="pcjOSyaFNlnAI5Jpouop-25" target="pcjOSyaFNlnAI5Jpouop-18">
          <mxGeometry relative="1" as="geometry" />
        </mxCell>
        <mxCell id="pcjOSyaFNlnAI5Jpouop-27" style="edgeStyle=orthogonalEdgeStyle;rounded=0;orthogonalLoop=1;jettySize=auto;html=1;entryX=1;entryY=0.5;entryDx=0;entryDy=0;" edge="1" parent="1" source="pcjOSyaFNlnAI5Jpouop-25" target="pcjOSyaFNlnAI5Jpouop-1">
          <mxGeometry relative="1" as="geometry" />
        </mxCell>
        <mxCell id="pcjOSyaFNlnAI5Jpouop-25" value="Tiene" style="shape=rhombus;perimeter=rhombusPerimeter;whiteSpace=wrap;html=1;align=center;" vertex="1" parent="1">
          <mxGeometry x="494" y="251" width="120" height="60" as="geometry" />
        </mxCell>
      </root>
    </mxGraphModel>
  </diagram>
</mxfile>
